<?xml version="1.0" encoding="UTF-8" standalone="no"?>
<!-- Created with Inkscape (http://www.inkscape.org/) -->

<svg
   xmlns:dc="http://purl.org/dc/elements/1.1/"
   xmlns:cc="http://creativecommons.org/ns#"
   xmlns:rdf="http://www.w3.org/1999/02/22-rdf-syntax-ns#"
   xmlns:svg="http://www.w3.org/2000/svg"
   xmlns="http://www.w3.org/2000/svg"
   xmlns:sodipodi="http://sodipodi.sourceforge.net/DTD/sodipodi-0.dtd"
   xmlns:inkscape="http://www.inkscape.org/namespaces/inkscape"
   width="100mm"
   height="100mm"
   viewBox="0 0 100 100"
   version="1.1"
   id="svg41623"
   sodipodi:docname="qrcode.svg">
  <defs
     id="defs41617" />
  <sodipodi:namedview
     id="base"
     pagecolor="#ffffff"
     bordercolor="#666666"
     borderopacity="1.0"
     inkscape:pageopacity="0"
     inkscape:pageshadow="2"
     inkscape:zoom="1.1272276"
     inkscape:cx="120.28378"
     inkscape:cy="199.88398"
     inkscape:document-units="mm"
     inkscape:current-layer="layer1"
     showgrid="false"
     inkscape:window-width="2556"
     inkscape:window-height="1365"
     inkscape:window-x="0"
     inkscape:window-y="73"
     inkscape:window-maximized="0"
     inkscape:pagecheckerboard="true" />
  <metadata
     id="metadata41620">
    <rdf:RDF>
      <cc:Work
         rdf:about="">
        <dc:format>image/svg+xml</dc:format>
        <dc:type
           rdf:resource="http://purl.org/dc/dcmitype/StillImage" />
        <dc:title />
      </cc:Work>
    </rdf:RDF>
  </metadata>
  <g
     inkscape:label="Layer 1"
     inkscape:groupmode="layer"
     id="layer1"
     transform="translate(0,-197)">
    <path
       style="fill:#000000;stroke-width:0.39999998"
       d="M 5,279.40001 V 266.8 H 17.6 30.2 V 279.40001 292 H 17.6 5 Z m 21.6,0 V 270.4 h -8.799999 -8.8 v 9.00001 8.99999 h 8.8 H 26.6 Z m -14.4,0 V 274 h 5.4 5.4 v 5.40001 5.39999 h -5.4 -5.4 z m 21.6,3.6 V 274 h 3.12 c 1.893333,0 3.308716,-0.1887 3.6,-0.48 0.291285,-0.29128 0.48,-1.70667 0.48,-3.6 v -3.12 h -1.32 c -1.669136,0 -2.28,0.61086 -2.28,2.28001 0,1.29777 -0.03031,1.31999 -1.8,1.31999 h -1.8 v -3.6 -3.6 H 28.4 23 V 261.40001 259.6 h -1.8 c -1.769696,0 -1.8,-0.0222 -1.8,-1.31999 C 19.4,256.31945 18.828369,256 15.32,256 H 12.2 V 254.20001 252.4 H 17.6 23 V 250.60001 248.8 h 1.8 1.8 v -1.79999 c 0,-1.7697 0.02222,-1.80001 1.32,-1.80001 1.669138,0 2.28,-0.61086 2.28,-2.27999 C 30.2,241.62222 30.1697,241.6 28.4,241.6 H 26.6 V 239.80001 238 h -3.12 c -1.893333,0 -3.308718,0.18872 -3.6,0.48 -0.321301,0.32131 -0.48,2.10668 -0.48,5.40001 V 248.8 h -1.8 c -1.769696,0 -1.8,-0.0222 -1.8,-1.31999 0,-1.66915 -0.610862,-2.28001 -2.28,-2.28001 -1.297776,0 -1.32,0.0304 -1.32,1.80001 0,1.76969 -0.02222,1.79999 -1.32,1.79999 -2.186904,0 -2.28,0.31359 -2.28,7.68 v 6.72 H 6.8 5 v -10.8 -10.8 h 1.8 1.8 v -3.12 C 8.6,234.97163 8.28056,234.4 6.32,234.4 5.022224,234.4 5,234.3698 5,232.60001 V 230.8 h 9 9 v 1.32001 c 0,1.66913 0.610864,2.27999 2.28,2.27999 1.297778,0 1.32,-0.0302 1.32,-1.79999 V 230.8 h 4.92 c 5.432164,0 5.88,-0.17365 5.88,-2.27999 0,-1.29779 -0.03031,-1.32001 -1.8,-1.32001 h -1.8 v -3.6 -3.6 h 1.32 c 1.51986,0 2.28,-0.6001 2.28,-1.79999 0,-1.1999 -0.76014,-1.80001 -2.28,-1.80001 -1.297775,0 -1.32,-0.0302 -1.32,-1.79999 V 212.8 h 5.4 5.4 v 1.80001 c 0,1.76969 -0.02224,1.79999 -1.32,1.79999 -1.960559,0 -2.28,0.57163 -2.28,4.08 v 3.12 h 1.8 1.8 V 221.80001 220 h 5.4 5.4 v -1.31999 C 55.4,216.71945 54.828369,216.4 51.32,216.4 H 48.2 v -3.6 -3.6 H 50 51.8 V 207.40001 205.6 H 50 48.2 V 203.80001 202 h 1.8 1.8 v 1.80001 1.79999 h 3.6 3.6 v 1.80001 1.79999 h -3.6 -3.6 v 1.32001 c 0,2.07639 0.482224,2.27999 5.4,2.27999 4.917776,0 5.4,-0.2036 5.4,-2.27999 0,-1.29779 0.03033,-1.32001 1.8,-1.32001 h 1.8 v 3.6 3.6 h -1.32 c -1.960559,0 -2.28,0.57163 -2.28,4.08 v 3.12 h 1.8 1.8 v 3.6 3.6 h 1.8 1.8 v 3.12 c 0,3.50837 0.319441,4.08 2.28,4.08 h 1.32 v -3.6 -3.6 h 1.8 c 1.769697,0 1.8,0.0222 1.8,1.32001 0,0.726 0.216,1.536 0.48,1.79999 0.264,0.26401 1.074001,0.48 1.8,0.48 1.297776,0 1.32,-0.0302 1.32,-1.79999 V 230.8 h 1.8 1.8 v 1.80001 1.79999 h -1.8 -1.8 v 3.6 3.6 h -1.8 c -1.769696,0 -1.8,-0.0222 -1.8,-1.31999 0,-0.726 -0.216,-1.536 -0.48,-1.80001 -0.264,-0.26399 -1.074,-0.48 -1.8,-0.48 -1.297775,0 -1.32,0.0304 -1.32,1.80001 0,1.76969 -0.02224,1.79999 -1.32,1.79999 -1.669136,0 -2.28,0.61086 -2.28,2.28001 V 245.2 h 7.2 7.2 v 1.80001 c 0,1.76969 -0.02224,1.79999 -1.32,1.79999 -1.960559,0 -2.28,0.57163 -2.28,4.08 V 256 h -1.8 c -1.769696,0 -1.8,-0.0222 -1.8,-1.31999 0,-0.726 -0.216,-1.536 -0.48,-1.80001 -0.264,-0.26399 -1.074,-0.48 -1.8,-0.48 -1.297775,0 -1.32,0.0304 -1.32,1.80001 V 256 h -3.6 -3.6 v -1.31999 c 0,-0.726 -0.216,-1.536 -0.48,-1.80001 -0.632212,-0.63221 -5.607788,-0.63221 -6.24,0 -0.291284,0.2913 -0.48,1.70667 -0.48,3.6 v 3.12 h 12.6 12.6 v 1.80001 c 0,1.76969 -0.02224,1.79999 -1.32,1.79999 -1.899116,0 -2.28,0.6014 -2.28,3.6 0,2.99862 0.380884,3.6 2.28,3.6 1.297776,0 1.32,-0.0302 1.32,-1.79999 V 266.8 h 3.12 c 1.893333,0 3.308716,-0.1887 3.6,-0.48 0.632212,-0.63221 0.632212,-5.60778 0,-6.24 -0.264,-0.26399 -1.074,-0.48 -1.8,-0.48 -1.226667,0 -1.32,-0.0933 -1.32,-1.31999 0,-0.726 -0.216,-1.536 -0.48,-1.80001 -0.264,-0.26399 -1.074,-0.48 -1.8,-0.48 -1.297775,0 -1.32,-0.0302 -1.32,-1.79999 0,-1.7697 0.02224,-1.80001 1.32,-1.80001 1.96056,0 2.28,-0.57163 2.28,-4.08 V 245.2 H 91.4 95 V 257.80001 270.4 h -5.4 -5.4 v 3.6 3.6 h -1.32 c -1.899116,0 -2.28,0.6014 -2.28,3.6 0,2.99862 0.380884,3.6 2.28,3.6 1.297776,0 1.32,-0.0302 1.32,-1.79999 V 281.2 H 86 87.8 V 279.40001 277.6 h 3.6 3.6 v 3.6 3.6 h -1.8 c -1.769696,0 -1.8,0.0222 -1.8,1.32001 0,1.66913 0.610864,2.27999 2.28,2.27999 1.297776,0 1.32,0.0304 1.32,1.80001 V 292 H 89.6 84.2 V 290.20001 288.4 h -8.52 c -6.093332,0 -8.656711,0.13667 -9,0.48 -0.264,0.26401 -0.48,1.07401 -0.48,1.80001 C 66.2,291.97778 66.16967,292 64.4,292 h -1.8 v -3.6 -3.6 h 1.32 c 1.669136,0 2.28,-0.61086 2.28,-2.27999 V 281.2 h -5.4 -5.4 v -1.31999 C 55.4,277.91945 54.828369,277.6 51.32,277.6 H 48.2 V 274 270.4 H 50 51.8 V 268.60001 266.8 H 50 48.2 V 265.00001 263.2 H 44.6 41 v 1.80001 1.79999 h 1.8 1.8 v 6.72 c 0,4.69334 0.144756,6.86477 0.48,7.2 0.291285,0.2913 1.706668,0.48 3.6,0.48 h 3.12 v 1.80001 c 0,1.76969 -0.02224,1.79999 -1.32,1.79999 -1.51986,0 -2.28,0.60011 -2.28,1.80001 0,1.19988 0.76014,1.79999 2.28,1.79999 1.297777,0 1.32,0.0304 1.32,1.80001 V 292 H 46.4 41 v -1.31999 C 41,289.16014 40.399888,288.4 39.2,288.4 c -1.199888,0 -1.8,0.76014 -1.8,2.28001 C 37.4,291.97778 37.36969,292 35.6,292 H 33.8 Z M 87.32,287.92 c 0.264,-0.26399 0.48,-1.07399 0.48,-1.79999 0,-1.29779 0.03033,-1.32001 1.8,-1.32001 1.769697,0 1.8,-0.0222 1.8,-1.31999 0,-0.726 -0.216,-1.536 -0.48,-1.80001 -0.264,-0.26399 -1.074,-0.48 -1.8,-0.48 -1.297775,0 -1.32,0.0304 -1.32,1.80001 V 284.8 H 86 84.2 v 1.80001 c 0,1.76969 0.02224,1.79999 1.32,1.79999 0.726,0 1.536,-0.21599 1.8,-0.48 z m -10.8,-3.6 c 0.276365,-0.27636 0.48,-1.59999 0.48,-3.12 0,-2.79622 -0.401883,-3.6 -1.8,-3.6 -1.199888,0 -1.8,0.76014 -1.8,2.28001 0,1.29777 -0.03031,1.31999 -1.8,1.31999 -1.769696,0 -1.8,-0.0222 -1.8,-1.31999 0,-1.51987 -0.600112,-2.28001 -1.8,-2.28001 -1.199888,0 -1.8,0.76014 -1.8,2.28001 0,1.29777 0.03033,1.31999 1.8,1.31999 1.769697,0 1.8,0.0222 1.8,1.32001 0,1.8991 0.601392,2.27999 3.6,2.27999 1.520001,0 2.843636,-0.20363 3.12,-0.48 z m -14.4,-10.8 c 0.617,-0.617 0.617,-2.023 0,-2.64 -0.321299,-0.32129 -2.106668,-0.48 -5.4,-0.48 H 51.8 v 1.32001 c 0,2.07639 0.482224,2.27999 5.4,2.27999 2.920001,0 4.604325,-0.16432 4.92,-0.48 z m 14.4,0 c 0.660188,-0.66018 0.660188,-9.17981 0,-9.84 -0.660188,-0.66018 -9.179812,-0.66018 -9.84,0 -0.315675,0.31568 -0.48,2.00001 -0.48,4.92001 0,2.92 0.164325,4.60432 0.48,4.91999 0.315677,0.31568 2.000001,0.48 4.92,0.48 2.920001,0 4.604325,-0.16432 4.92,-0.48 z M 69.8,268.60001 V 266.8 h 1.8 1.8 V 268.60001 270.4 H 71.6 69.8 Z M 58.52,266.32 c 0.291285,-0.29128 0.48,-1.70667 0.48,-3.6 v -3.12 h -1.8 c -1.769696,0 -1.8,-0.0222 -1.8,-1.31999 C 55.4,256.38089 54.798609,256 51.8,256 c -1.519999,0 -2.843635,0.20364 -3.12,0.48 -0.291284,0.2913 -0.48,1.70667 -0.48,3.6 v 3.12 h 1.8 1.8 v 1.80001 1.79999 h 3.12 c 1.893333,0 3.308716,-0.1887 3.6,-0.48 z M 51.8,261.40001 V 259.6 h 1.8 1.8 v 1.80001 1.79999 h -1.8 -1.8 z m -10.8,0.48 C 41,259.98089 40.398609,259.6 37.4,259.6 c -2.998608,0 -3.6,0.38089 -3.6,2.28001 V 263.2 H 37.4 41 Z M 29.72,259.12 c 0.264,-0.26399 0.48,-1.07399 0.48,-1.79999 V 256 h 3.12 c 3.508369,0 4.08,-0.31943 4.08,-2.27999 V 252.4 h 8.52 c 8.943124,0 9.48,-0.1019 9.48,-1.79999 C 55.4,249.1477 54.611889,248.8 51.32,248.8 H 48.2 v -3.6 -3.6 h 1.32 c 0.726001,0 1.536,-0.21599 1.8,-0.48 0.264,-0.26399 0.48,-1.07399 0.48,-1.79999 V 238 h 3.6 3.6 v 1.80001 c 0,1.76969 -0.02224,1.79999 -1.32,1.79999 -1.51986,0 -2.28,0.60011 -2.28,1.80001 0,1.39811 0.803773,1.79999 3.6,1.79999 2.998609,0 3.6,-0.38089 3.6,-2.27999 0,-1.22667 0.09334,-1.32001 1.32,-1.32001 1.51986,0 2.28,-0.60011 2.28,-1.79999 C 66.2,238.3477 65.411889,238 62.12,238 H 59 v -1.31999 C 59,234.71945 58.428369,234.4 54.92,234.4 H 51.8 v -3.6 -3.6 h 1.8 c 1.769697,0 1.8,0.0222 1.8,1.32001 0,1.96056 0.571633,2.27999 4.08,2.27999 h 3.12 v 1.32001 c 0,1.51985 0.600112,2.27999 1.8,2.27999 1.199888,0 1.8,-0.76014 1.8,-2.27999 0,-1.29779 -0.03033,-1.32001 -1.8,-1.32001 h -1.8 v -3.6 -3.6 H 60.8 C 59.030304,223.6 59,223.5778 59,222.28001 59,220.61086 58.389136,220 56.72,220 c -1.297775,0 -1.32,0.0302 -1.32,1.80001 0,1.76969 -0.02224,1.79999 -1.32,1.79999 -1.669136,0 -2.28,0.61086 -2.28,2.28001 0,1.29777 -0.03031,1.31999 -1.8,1.31999 -1.769696,0 -1.8,-0.0222 -1.8,-1.31999 0,-1.66915 -0.610864,-2.28001 -2.28,-2.28001 -1.226667,0 -1.32,0.0933 -1.32,1.32001 0,1.66913 0.610864,2.27999 2.28,2.27999 h 1.32 v 3.6 3.6 h -1.8 c -1.769696,0 -1.8,-0.0222 -1.8,-1.31999 0,-1.51987 -0.600112,-2.28001 -1.8,-2.28001 -1.199888,0 -1.8,0.76014 -1.8,2.28001 V 234.4 h -3.12 c -3.508368,0 -4.08,0.31945 -4.08,2.28001 C 33.8,237.97778 33.76969,238 32,238 c -1.769696,0 -1.8,-0.0222 -1.8,-1.31999 0,-1.66915 -0.610862,-2.28001 -2.28,-2.28001 -1.297776,0 -1.32,0.0304 -1.32,1.80001 V 238 h 1.8 1.8 v 1.80001 1.79999 h 1.8 1.8 v 3.6 3.6 H 30.2 26.6 V 250.60001 252.4 H 24.8 23 v 3.6 3.6 h 3.12 c 1.893333,0 3.308718,-0.1887 3.6,-0.48 z M 26.6,254.20001 V 252.4 h 1.8 1.8 V 254.20001 256 h -1.8 -1.8 z m 10.8,-7.2 V 245.2 H 41 44.6 V 247.00001 248.8 H 41 37.4 Z M 41,238 v -3.6 h 1.8 1.8 v 3.6 3.6 H 42.8 41 Z m 7.2,-1.79999 V 234.4 H 50 51.8 V 236.20001 238 H 50 48.2 Z m 7.2,-10.8 V 223.6 h 1.8 1.8 v 1.80001 1.79999 h -1.8 -1.8 z m 18,25.68 c 0,-0.726 -0.216,-1.536 -0.48,-1.80001 -0.264,-0.26399 -1.074,-0.48 -1.8,-0.48 -1.297775,0 -1.32,-0.0302 -1.32,-1.79999 0,-1.7697 -0.02224,-1.80001 -1.32,-1.80001 -1.51986,0 -2.28,0.60011 -2.28,1.80001 0,1.19988 0.76014,1.79999 2.28,1.79999 1.226668,0 1.32,0.0933 1.32,1.32001 0,0.726 0.216,1.536 0.48,1.79999 0.264,0.26401 1.074001,0.48 1.8,0.48 1.226668,0 1.32,-0.0933 1.32,-1.31999 z m -61.2,-7.68 c 0,-1.7697 0.02222,-1.80001 1.32,-1.80001 1.899117,0 2.28,-0.60138 2.28,-3.6 0,-2.79622 -0.401885,-3.6 -1.8,-3.6 -1.452303,0 -1.8,0.78812 -1.8,4.08 v 3.12 h -1.8 c -1.769696,0 -1.8,0.0222 -1.8,1.32001 0,0.726 0.216,1.536 0.48,1.79999 0.264,0.26401 1.074001,0.48 1.8,0.48 1.297778,0 1.32,-0.0304 1.32,-1.79999 z M 40.52,226.72 C 40.784,226.45601 41,225.64601 41,224.92001 41,223.69334 40.90668,223.6 39.68,223.6 c -1.669136,0 -2.28,0.61086 -2.28,2.28001 0,1.22667 0.09334,1.31999 1.32,1.31999 0.726,0 1.536,-0.21599 1.8,-0.48 z M 12.2,261.40001 V 259.6 H 14 15.8 V 261.40001 263.2 H 14 12.2 Z m 72,-21.6 V 238 H 86 87.8 V 239.80001 241.6 H 86 84.2 Z m 7.2,-3.6 V 234.4 H 89.6 87.8 V 232.60001 230.8 h 1.8 1.8 V 232.60001 234.4 H 93.2 95 V 236.20001 238 H 93.2 91.4 Z M 5,214.60001 V 202 H 17.6 30.2 V 214.60001 227.2 H 17.6 5 Z m 21.6,0 V 205.6 h -8.799999 -8.8 v 9.00001 8.99999 h 8.8 H 26.6 Z m -14.4,0 V 209.2 H 17.6 23 V 214.60001 220 h -5.4 -5.4 z m 57.6,0 V 202 H 82.4 95 V 214.60001 227.2 H 82.4 69.8 Z m 21.6,0 V 205.6 h -8.799999 -8.8 v 9.00001 8.99999 h 8.8 H 91.4 Z m -14.4,0 V 209.2 h 5.4 5.4 V 214.60001 220 H 82.4 77 Z m -43.2,-7.2 V 205.6 h 1.8 1.8 V 207.40001 209.2 H 35.6 33.8 Z M 41,205.6 V 202 h 1.8 1.8 v 3.6 3.6 H 42.8 41 Z m 21.6,-1.79999 V 202 h 1.8 1.8 v 1.80001 1.79999 h -1.8 -1.8 z"
       id="path35357"
       inkscape:connector-curvature="0" />
  </g>
</svg>
